<mxfile host="app.diagrams.net" modified="2024-01-09T15:44:11.281Z" agent="Mozilla/5.0 (Windows NT 10.0; Win64; x64) AppleWebKit/537.36 (KHTML, like Gecko) Chrome/120.0.0.0 Safari/537.36" etag="vemNCxcH5-eI8Sdx5wHf" version="22.1.17" type="github">
  <diagram name="Page-1" id="QdQ3WsFKy4GePyPHYfOY">
    <mxGraphModel dx="2268" dy="603" grid="1" gridSize="10" guides="1" tooltips="1" connect="1" arrows="1" fold="1" page="1" pageScale="1" pageWidth="850" pageHeight="1100" math="0" shadow="0">
      <root>
        <mxCell id="0" />
        <mxCell id="1" parent="0" />
        <mxCell id="c4G_J08RzAKHCnMIqUL0-1" value="SYSTEM" style="swimlane;whiteSpace=wrap" vertex="1" parent="1">
          <mxGeometry x="164.5" y="128" width="280" height="570" as="geometry" />
        </mxCell>
        <mxCell id="c4G_J08RzAKHCnMIqUL0-2" value="" style="ellipse;shape=startState;fillColor=#000000;strokeColor=#ff0000;" vertex="1" parent="c4G_J08RzAKHCnMIqUL0-1">
          <mxGeometry x="100" y="40" width="30" height="30" as="geometry" />
        </mxCell>
        <mxCell id="c4G_J08RzAKHCnMIqUL0-3" value="" style="edgeStyle=elbowEdgeStyle;elbow=horizontal;verticalAlign=bottom;endArrow=open;endSize=8;strokeColor=#FF0000;endFill=1;rounded=0" edge="1" parent="c4G_J08RzAKHCnMIqUL0-1" source="c4G_J08RzAKHCnMIqUL0-2" target="c4G_J08RzAKHCnMIqUL0-4">
          <mxGeometry x="100" y="40" as="geometry">
            <mxPoint x="115" y="110" as="targetPoint" />
          </mxGeometry>
        </mxCell>
        <mxCell id="c4G_J08RzAKHCnMIqUL0-4" value="Log in" style="" vertex="1" parent="c4G_J08RzAKHCnMIqUL0-1">
          <mxGeometry x="60" y="110" width="110" height="50" as="geometry" />
        </mxCell>
        <mxCell id="c4G_J08RzAKHCnMIqUL0-5" value="" style="endArrow=open;strokeColor=#FF0000;endFill=1;rounded=0" edge="1" parent="c4G_J08RzAKHCnMIqUL0-1" source="c4G_J08RzAKHCnMIqUL0-4">
          <mxGeometry relative="1" as="geometry">
            <mxPoint x="115" y="220" as="targetPoint" />
          </mxGeometry>
        </mxCell>
        <mxCell id="c4G_J08RzAKHCnMIqUL0-6" value="Authentication" style="edgeLabel;html=1;align=center;verticalAlign=middle;resizable=0;points=[];" vertex="1" connectable="0" parent="c4G_J08RzAKHCnMIqUL0-5">
          <mxGeometry x="0.22" y="-2" relative="1" as="geometry">
            <mxPoint as="offset" />
          </mxGeometry>
        </mxCell>
        <mxCell id="c4G_J08RzAKHCnMIqUL0-7" value="Is Admin?" style="" vertex="1" parent="c4G_J08RzAKHCnMIqUL0-1">
          <mxGeometry x="60" y="325" width="110" height="50" as="geometry" />
        </mxCell>
        <mxCell id="c4G_J08RzAKHCnMIqUL0-8" value="" style="endArrow=open;strokeColor=#FF0000;endFill=1;rounded=0" edge="1" parent="c4G_J08RzAKHCnMIqUL0-1" target="c4G_J08RzAKHCnMIqUL0-7">
          <mxGeometry relative="1" as="geometry">
            <mxPoint x="115" y="270" as="sourcePoint" />
          </mxGeometry>
        </mxCell>
        <mxCell id="c4G_J08RzAKHCnMIqUL0-9" value="" style="edgeStyle=elbowEdgeStyle;elbow=horizontal;strokeColor=#FF0000;endArrow=open;endFill=1;rounded=0;exitX=0;exitY=0.5;exitDx=0;exitDy=0;" edge="1" parent="c4G_J08RzAKHCnMIqUL0-1" source="c4G_J08RzAKHCnMIqUL0-10" target="c4G_J08RzAKHCnMIqUL0-4">
          <mxGeometry width="100" height="100" relative="1" as="geometry">
            <mxPoint x="65.5" y="242" as="sourcePoint" />
            <mxPoint x="260" y="190" as="targetPoint" />
            <Array as="points">
              <mxPoint x="30" y="250" />
            </Array>
          </mxGeometry>
        </mxCell>
        <mxCell id="c4G_J08RzAKHCnMIqUL0-10" value="" style="rhombus;fillColor=#ffffc0;strokeColor=#ff0000;" vertex="1" parent="c4G_J08RzAKHCnMIqUL0-1">
          <mxGeometry x="65" y="220" width="105" height="42" as="geometry" />
        </mxCell>
        <mxCell id="c4G_J08RzAKHCnMIqUL0-11" value="" style="endArrow=open;strokeColor=#FF0000;endFill=1;rounded=0;entryX=1;entryY=0.5;entryDx=0;entryDy=0;" edge="1" parent="c4G_J08RzAKHCnMIqUL0-1" target="c4G_J08RzAKHCnMIqUL0-14">
          <mxGeometry relative="1" as="geometry">
            <mxPoint x="59" y="352" as="sourcePoint" />
            <mxPoint x="-104.5" y="132" as="targetPoint" />
            <Array as="points">
              <mxPoint x="-14.5" y="352" />
              <mxPoint x="-14.5" y="132" />
            </Array>
          </mxGeometry>
        </mxCell>
        <mxCell id="c4G_J08RzAKHCnMIqUL0-12" value="YES" style="edgeLabel;html=1;align=center;verticalAlign=middle;resizable=0;points=[];" vertex="1" connectable="0" parent="c4G_J08RzAKHCnMIqUL0-11">
          <mxGeometry x="-0.8527" y="-2" relative="1" as="geometry">
            <mxPoint as="offset" />
          </mxGeometry>
        </mxCell>
        <mxCell id="c4G_J08RzAKHCnMIqUL0-13" value="Admin" style="swimlane;whiteSpace=wrap" vertex="1" parent="1">
          <mxGeometry x="-115.5" y="128" width="280" height="570" as="geometry" />
        </mxCell>
        <mxCell id="c4G_J08RzAKHCnMIqUL0-14" value="Add employee details" style="" vertex="1" parent="c4G_J08RzAKHCnMIqUL0-13">
          <mxGeometry x="60" y="110" width="110" height="50" as="geometry" />
        </mxCell>
        <mxCell id="c4G_J08RzAKHCnMIqUL0-15" value="Update employee &#xa;details" style="" vertex="1" parent="c4G_J08RzAKHCnMIqUL0-13">
          <mxGeometry x="60" y="220" width="110" height="50" as="geometry" />
        </mxCell>
        <mxCell id="c4G_J08RzAKHCnMIqUL0-16" value="" style="endArrow=open;strokeColor=#FF0000;endFill=1;rounded=0" edge="1" parent="c4G_J08RzAKHCnMIqUL0-13" source="c4G_J08RzAKHCnMIqUL0-14" target="c4G_J08RzAKHCnMIqUL0-15">
          <mxGeometry relative="1" as="geometry" />
        </mxCell>
        <mxCell id="c4G_J08RzAKHCnMIqUL0-17" value="Delete employee &#xa;details" style="" vertex="1" parent="c4G_J08RzAKHCnMIqUL0-13">
          <mxGeometry x="60" y="325" width="110" height="50" as="geometry" />
        </mxCell>
        <mxCell id="c4G_J08RzAKHCnMIqUL0-18" value="" style="endArrow=open;strokeColor=#FF0000;endFill=1;rounded=0" edge="1" parent="c4G_J08RzAKHCnMIqUL0-13" source="c4G_J08RzAKHCnMIqUL0-15" target="c4G_J08RzAKHCnMIqUL0-17">
          <mxGeometry relative="1" as="geometry" />
        </mxCell>
        <mxCell id="c4G_J08RzAKHCnMIqUL0-19" value="" style="edgeStyle=elbowEdgeStyle;elbow=horizontal;strokeColor=#FF0000;endArrow=open;endFill=1;rounded=0" edge="1" parent="c4G_J08RzAKHCnMIqUL0-13" source="c4G_J08RzAKHCnMIqUL0-17" target="c4G_J08RzAKHCnMIqUL0-14">
          <mxGeometry width="100" height="100" relative="1" as="geometry">
            <mxPoint x="160" y="290" as="sourcePoint" />
            <mxPoint x="260" y="190" as="targetPoint" />
            <Array as="points">
              <mxPoint x="30" y="250" />
            </Array>
          </mxGeometry>
        </mxCell>
        <mxCell id="c4G_J08RzAKHCnMIqUL0-20" value="" style="ellipse;html=1;shape=endState;fillColor=#000000;strokeColor=#ff0000;" vertex="1" parent="c4G_J08RzAKHCnMIqUL0-13">
          <mxGeometry x="100" y="432" width="30" height="30" as="geometry" />
        </mxCell>
        <mxCell id="c4G_J08RzAKHCnMIqUL0-21" value="" style="endArrow=open;strokeColor=#FF0000;endFill=1;rounded=0" edge="1" parent="c4G_J08RzAKHCnMIqUL0-13">
          <mxGeometry relative="1" as="geometry">
            <mxPoint x="114.5" y="375" as="sourcePoint" />
            <mxPoint x="114.5" y="430" as="targetPoint" />
          </mxGeometry>
        </mxCell>
      </root>
    </mxGraphModel>
  </diagram>
</mxfile>
